HIERARCHY
ROOT Hips
{
	OFFSET 0.000000 0.000000 0.000000
	CHANNELS 6 Xposition Yposition Zposition Zrotation Yrotation Xrotation 
	JOINT LHipJoint
	{
		OFFSET 0.000000 0.000000 0.000000
		CHANNELS 3 Zrotation Yrotation Xrotation
		JOINT LeftUpLeg
		{
			OFFSET 1.363060 -1.794630 0.839290
			CHANNELS 3 Zrotation Yrotation Xrotation
			JOINT LeftLeg
			{
				OFFSET 2.448110 -6.726130 0.000000
				CHANNELS 3 Zrotation Yrotation Xrotation
				JOINT LeftFoot
				{
					OFFSET 2.562200 -7.039590 0.000000
					CHANNELS 3 Zrotation Yrotation Xrotation
					JOINT LeftToeBase
					{
						OFFSET 0.157640 -0.433110 2.322550
						CHANNELS 3 Zrotation Yrotation Xrotation
						End Site
						{
							OFFSET 0.000000 0.000000 0.000000
						}
					}
				}
			}
		}
	}
	JOINT RHipJoint
	{
		OFFSET 0.000000 0.000000 0.000000
		CHANNELS 3 Zrotation Yrotation Xrotation
		JOINT RightUpLeg
		{
			OFFSET -1.305520 -1.794630 0.839290
			CHANNELS 3 Zrotation Yrotation Xrotation
			JOINT RightLeg
			{
				OFFSET -2.542530 -6.985550 0.000000
				CHANNELS 3 Zrotation Yrotation Xrotation
				JOINT RightFoot
				{
					OFFSET -2.568260 -7.056230 0.000000
					CHANNELS 3 Zrotation Yrotation Xrotation
					JOINT RightToeBase
					{
						OFFSET -0.164730 -0.452590 2.363150
						CHANNELS 3 Zrotation Yrotation Xrotation
						End Site
						{
							OFFSET 0.000000 0.000000 0.000000
						}
					}
				}
			}
		}
	}
	JOINT LowerBack
	{
		OFFSET 0.000000 0.000000 0.000000
		CHANNELS 3 Zrotation Yrotation Xrotation
		JOINT Spine
		{
			OFFSET 0.028270 2.035590 -0.193380
			CHANNELS 3 Zrotation Yrotation Xrotation
			JOINT Spine1
			{
				OFFSET 0.056720 2.048850 -0.042750
				CHANNELS 3 Zrotation Yrotation Xrotation
				JOINT Neck
				{
					OFFSET 0.000000 0.000000 0.000000
					CHANNELS 3 Zrotation Yrotation Xrotation
					JOINT Neck1
					{
						OFFSET -0.054170 1.746240 0.172020
						CHANNELS 3 Zrotation Yrotation Xrotation
						JOINT Head
						{
							OFFSET 0.104070 1.761360 -0.123970
							CHANNELS 3 Zrotation Yrotation Xrotation
							End Site
							{
								OFFSET 0.000000 0.000000 0.000000
							}
						}
					}
				}
				JOINT LeftShoulder
				{
					OFFSET 0.000000 0.000000 0.000000
					CHANNELS 3 Zrotation Yrotation Xrotation
					JOINT LeftArm
					{
						OFFSET 3.362410 1.200890 -0.311210
						CHANNELS 3 Zrotation Yrotation Xrotation
						JOINT LeftForeArm
						{
							OFFSET 4.983000 -0.000000 -0.000000
							CHANNELS 3 Zrotation Yrotation Xrotation
							JOINT LeftHand
							{
								OFFSET 3.483560 -0.000000 -0.000000
								CHANNELS 3 Zrotation Yrotation Xrotation
								JOINT LeftFingerBase
								{
									OFFSET 0.000000 0.000000 0.000000
									CHANNELS 3 Zrotation Yrotation Xrotation
									JOINT LeftHandIndex1
									{
										OFFSET 0.715260 -0.000000 -0.000000
										CHANNELS 3 Zrotation Yrotation Xrotation
										End Site
										{
											OFFSET 0.000000 0.000000 0.000000
										}
									}
								}
								JOINT LThumb
								{
									OFFSET 0.000000 0.000000 0.000000
									CHANNELS 3 Zrotation Yrotation Xrotation
									End Site
									{
										OFFSET 0.000000 0.000000 0.000000
									}
								}
							}
						}
					}
				}
				JOINT RightShoulder
				{
					OFFSET 0.000000 0.000000 0.000000
					CHANNELS 3 Zrotation Yrotation Xrotation
					JOINT RightArm
					{
						OFFSET -3.136600 1.374050 -0.404650
						CHANNELS 3 Zrotation Yrotation Xrotation
						JOINT RightForeArm
						{
							OFFSET -5.241900 -0.000000 -0.000000
							CHANNELS 3 Zrotation Yrotation Xrotation
							JOINT RightHand
							{
								OFFSET -3.444170 -0.000000 -0.000000
								CHANNELS 3 Zrotation Yrotation Xrotation
								JOINT RightFingerBase
								{
									OFFSET 0.000000 0.000000 0.000000
									CHANNELS 3 Zrotation Yrotation Xrotation
									JOINT RightHandIndex1
									{
										OFFSET -0.622530 -0.000000 -0.000000
										CHANNELS 3 Zrotation Yrotation Xrotation
										End Site
										{
											OFFSET 0.000000 0.000000 0.000000
										}
									}
								}
								JOINT RThumb
								{
									OFFSET 0.000000 0.000000 0.000000
									CHANNELS 3 Zrotation Yrotation Xrotation
									End Site
									{
										OFFSET 0.000000 0.000000 0.000000
									}
								}
							}
						}
					}
				}
			}
		}
	}
}
MOTION
Frames: 6
Frame Time: 0.008333
1.753115 17.352882 1.658919 177.171868 -68.027463 -164.917673 -11.056515 2.400873 -0.432712 -9.916057 18.446906 -14.978054 -2.325646 -0.902776 4.381695 2.435475 16.192197 -4.054686 1.224800 0.000001 -26.744000 9.809409 -1.021234 3.259711 -0.863060 1.470905 -20.255806 2.416513 0.516937 4.312583 1.073423 6.338450 8.435630 1.178400 0.000000 -74.586100 0.082765 -2.991948 -3.849093 -0.532255 -3.044467 -3.858321 -6.107421 -2.847083 -2.840976 8.116830 -9.850333 1.666549 -3.276132 -0.360351 2.581850 0.000000 0.000000 0.000000 16.540777 -0.569575 -5.211301 -70.002744 -46.789430 -6.367820 177.655625 -53.497648 179.755357 12.620441 -9.052807 -1.156313 -0.144574 1.268681 -0.000000 0.000000 0.000000 0.000000 0.000000 0.000000 0.000000 2.195627 -10.278304 -4.230158 84.874275 38.361129 23.184192 -177.584620 65.547866 179.720044 -20.534741 12.363206 -2.461006 0.258141 -0.988292 -0.000000 0.000000 0.000000 0.000000 0.000000 0.000000 0.000000 
1.754714 17.349480 1.677165 176.746327 -68.751877 -164.211254 -10.989534 2.348315 -0.308156 -10.123233 17.413884 -15.551789 -2.305802 -0.873390 5.045814 2.477597 16.233156 -4.386379 1.147300 0.000000 -26.317700 9.838297 -0.942090 3.141977 -1.010486 1.117819 -20.739694 2.361585 0.469323 4.997035 1.004268 5.872956 8.022774 1.025300 -0.000001 -74.533500 0.090559 -3.038895 -3.775514 -0.554692 -3.092534 -3.845214 -6.235498 -2.892192 -2.864089 8.406159 -9.788114 1.491029 -3.296576 -0.359089 2.530318 0.000000 0.000000 0.000000 16.600924 -0.670093 -5.229656 -70.015071 -47.511678 -6.002395 177.680309 -53.960100 179.754146 12.649565 -9.114784 -1.166192 -0.143298 1.271608 -0.000000 0.000000 0.000000 0.000000 0.000000 0.000000 0.000000 2.668108 -10.169667 -3.986186 84.285124 37.217049 22.568212 -177.651161 65.796065 179.722164 -20.600413 12.305678 -2.456766 0.260495 -0.979791 -0.000000 0.000000 0.000000 0.000000 0.000000 0.000000 0.000000 
1.756388 17.345330 1.696462 176.225481 -69.627679 -163.396975 -10.925714 2.295996 -0.176774 -10.319870 16.343583 -16.162662 -2.292570 -0.840464 5.724034 2.502125 16.164212 -4.696456 1.066500 0.000000 -25.982900 9.865696 -0.857880 3.011338 -1.166116 0.720953 -21.182122 2.301173 0.426602 5.656535 0.917546 5.285585 7.584899 0.842600 0.000000 -74.433000 0.128738 -3.094230 -3.689992 -0.573394 -3.151574 -3.830656 -6.376157 -2.948254 -2.889685 8.719187 -9.715671 1.287205 -3.320790 -0.357627 2.470513 0.000000 0.000000 0.000000 16.632970 -0.745387 -5.240296 -70.032439 -48.364236 -5.573297 177.714606 -54.504404 179.752955 12.676323 -9.174439 -1.175661 -0.141796 1.274551 -0.000000 0.000000 0.000000 0.000000 0.000000 0.000000 0.000000 3.205314 -10.043031 -3.730276 83.668099 35.971693 21.913408 -177.719739 66.073829 179.724233 -20.704059 12.232340 -2.453823 0.263506 -0.969935 -0.000000 0.000000 0.000000 0.000000 0.000000 0.000000 0.000000 
1.757462 17.340349 1.716396 175.562588 -70.668634 -162.429751 -10.866524 2.246141 -0.035277 -10.508003 15.237986 -16.798449 -2.286896 -0.805831 6.393612 2.505480 15.971327 -4.973796 0.985800 0.000000 -25.749199 9.891773 -0.769690 2.866032 -1.331079 0.258076 -21.571844 2.236180 0.389850 6.281154 0.812754 4.584225 7.122343 0.635200 0.000001 -74.292800 0.199262 -3.156833 -3.597005 -0.587945 -3.220761 -3.815634 -6.529576 -3.014695 -2.917476 9.046249 -9.630433 1.055577 -3.348461 -0.355946 2.402580 0.000000 0.000000 0.000000 16.624948 -0.787192 -5.241159 -70.061803 -49.356695 -5.065364 177.760068 -55.137156 179.751816 12.702496 -9.222817 -1.183718 -0.140208 1.277165 -0.000000 0.000000 0.000000 0.000000 0.000000 0.000000 0.000000 3.793677 -9.894564 -3.466277 83.037826 34.608561 21.213580 -177.788186 66.368965 179.726329 -20.827436 12.156110 -2.452376 0.266494 -0.959173 -0.000000 0.000000 0.000000 0.000000 0.000000 0.000000 0.000000 
1.757506 17.334465 1.736425 174.681930 -71.889202 -161.239528 -10.813157 2.200319 0.121369 -10.690442 14.091102 -17.447115 -2.289061 -0.771518 7.033482 2.484956 15.645093 -5.208341 0.908901 -0.000000 -25.621200 9.916599 -0.678396 2.703448 -1.504994 -0.299995 -21.901356 2.168180 0.359699 6.863541 0.690165 3.782983 6.635593 0.409200 0.000000 -74.123000 0.302106 -3.224749 -3.502869 -0.598136 -3.298255 -3.802126 -6.695149 -3.090089 -2.950008 9.374968 -9.526240 0.799933 -3.378810 -0.354047 2.327632 0.000000 0.000000 0.000000 16.563389 -0.793469 -5.230574 -70.117625 -50.494047 -4.456271 177.817475 -55.870119 179.750691 12.733522 -9.252448 -1.190061 -0.138713 1.279122 -0.000000 0.000000 0.000000 0.000000 0.000000 0.000000 0.000000 4.413728 -9.715126 -3.197487 82.407497 33.102341 20.453452 -177.853914 66.669347 179.728508 -20.947807 12.099964 -2.454124 0.268547 -0.948207 -0.000000 0.000000 0.000000 0.000000 0.000000 0.000000 0.000000 
1.755702 17.327663 1.756015 173.467489 -73.300929 -159.712435 -10.767087 2.159551 0.299320 -10.870504 12.889747 -18.091944 -2.298465 -0.740189 7.619934 2.439117 15.183936 -5.388845 0.839600 -0.000000 -25.601300 9.939993 -0.585408 2.520154 -1.688979 -0.986811 -22.162327 2.099182 0.336244 7.397853 0.550635 2.899957 6.125252 0.171900 -0.000000 -73.935600 0.433565 -3.294669 -3.414628 -0.604496 -3.380549 -3.792909 -6.872040 -3.171483 -2.992535 9.691199 -9.391995 0.527893 -3.411038 -0.351981 2.247846 0.000000 0.000000 0.000000 16.437608 -0.767447 -5.207656 -70.228571 -51.772655 -3.713878 177.886864 -56.711048 179.749494 12.776776 -9.258554 -1.194690 -0.137538 1.280206 -0.000000 0.000000 0.000000 0.000000 0.000000 0.000000 0.000000 5.041847 -9.489266 -2.926507 81.788935 31.417901 19.605396 -177.913468 66.959920 179.730770 -21.043462 12.092427 -2.461865 0.268710 -0.937885 -0.000000 0.000000 0.000000 0.000000 0.000000 0.000000 0.000000 
